<svg xmlns="http://www.w3.org/2000/svg" viewBox="0 0 240 48" fill="none">
  <path fill="#fb923c" d="M30.3 2.6c2 8-1.1 14.1-6.4 20.2-3.6 4.2-6.1 8.1-6.1 13 0 6.8 5 11.8 11.7 11.8 7.6 0 12.9-5.7 12.9-14.4 0-10.2-5.9-20.4-12.1-30.6Z"/>
  <path fill="#ffffff" d="M19.3 29.8C11.2 34.8 6.6 41.6 6.6 49.1c0 7.1 5.8 12.9 13.1 12.9 10.4 0 18.6-8.2 18.6-20.3 0-2.9-.5-5.6-1.4-8.3-1.8 8.2-7.2 13.1-14.3 13.1-7.3 0-12.8-5.4-12.8-12.7 0-1.3.2-2.6.5-4Z" transform="translate(0 -14)"/>
  <text x="58" y="30" fill="#ffffff" font-family="Inter, Arial, sans-serif" font-size="24" font-weight="700">Kindling</text>
</svg>
